<?xml version="1.0" encoding="UTF-8" standalone="no"?>
<svg
   xmlns:dc="http://purl.org/dc/elements/1.1/"
   xmlns:cc="http://creativecommons.org/ns#"
   xmlns:rdf="http://www.w3.org/1999/02/22-rdf-syntax-ns#"
   xmlns:svg="http://www.w3.org/2000/svg"
   xmlns="http://www.w3.org/2000/svg"
   xmlns:sodipodi="http://sodipodi.sourceforge.net/DTD/sodipodi-0.dtd"
   xmlns:inkscape="http://www.inkscape.org/namespaces/inkscape"
   inkscape:version="1.0 (4035a4f, 2020-05-01)"
   sodipodi:docname="ig-favicon.svg"
   viewBox="0 0 259 194"
   height="194"
   width="259"
   id="svg192"
   version="1.1">
  <metadata
     id="metadata198">
    <rdf:RDF>
      <cc:Work
         rdf:about="">
        <dc:format>image/svg+xml</dc:format>
        <dc:type
           rdf:resource="http://purl.org/dc/dcmitype/StillImage" />
        <dc:title></dc:title>
      </cc:Work>
    </rdf:RDF>
  </metadata>
  <defs
     id="defs196" />
  <sodipodi:namedview
     inkscape:current-layer="g200"
     inkscape:window-maximized="0"
     inkscape:window-y="23"
     inkscape:window-x="50"
     inkscape:cy="97"
     inkscape:cx="129.5"
     inkscape:zoom="1.1814672"
     showgrid="false"
     id="namedview194"
     inkscape:window-height="755"
     inkscape:window-width="1225"
     inkscape:pageshadow="2"
     inkscape:pageopacity="0"
     guidetolerance="10"
     gridtolerance="10"
     objecttolerance="10"
     borderopacity="1"
     bordercolor="#666666"
     pagecolor="#ffffff" />
  <g
     id="g200"
     inkscape:label="Image"
     inkscape:groupmode="layer">
    <path
       id="path204"
       d="m 67.813265,182.5132 c -10.71633,-4.22705 -19.0932,-12.19575 -23.00951,-21.88837 -2.29392,-5.6773 -2.30499,-5.93559 -2.5941,-60.51984 -0.2504,-47.277729 -0.0737,-55.663976 1.28484,-60.96674 2.87217,-11.211199 10.69346,-20.566499 21.38549,-25.579882 l 5.62002,-2.635165 h 59.021035 59.02102 l 6.58398,3.24128 c 7.92932,3.90359 14.95154,11.05606 18.69391,19.040655 l 2.68006,5.718065 V 97.423202 155.9232 l -2.69589,5.75264 c -3.53241,7.53767 -11.34809,15.68598 -18.53846,19.32743 l -5.76565,2.91993 -58.5,0.21934 c -54.846255,0.20564 -58.792735,0.10387 -63.186745,-1.62934 z M 172.50001,160.53895 c 8.9246,-3.5101 17.41972,-12.44303 20.60084,-21.66253 2.35149,-6.81506 2.39916,-7.63871 2.39916,-41.453218 0,-33.814507 -0.0477,-34.638155 -2.39916,-41.453219 -3.17713,-9.207946 -11.67073,-18.144301 -20.60084,-21.674737 -5.93213,-2.34521 -6.41855,-2.372043 -43,-2.372043 -36.581455,0 -37.067885,0.02683 -43.000005,2.372043 -8.93012,3.530436 -17.42371,12.466791 -20.60085,21.674737 -2.35148,6.815064 -2.39915,7.638712 -2.39915,41.453219 0,33.557408 0.0638,34.684788 2.33604,41.263558 2.66879,7.72697 9.94671,16.56464 16.31783,19.81494 8.89424,4.5375 12.35396,4.86162 49.346135,4.62293 34.14809,-0.22035 35.14604,-0.28328 41,-2.58568 z M 95.326405,150.41478 c -6.02315,-1.24285 -9.64945,-3.38278 -13.64745,-8.05355 -5.64713,-6.5974 -6.17895,-10.4652 -6.17895,-44.938028 0,-35.092091 0.48613,-38.430547 6.60903,-45.386528 6.94171,-7.886194 8.26923,-8.113471 47.390975,-8.113471 39.12173,0 40.44926,0.227277 47.39097,8.113471 6.1229,6.955981 6.60903,10.294437 6.60903,45.386528 0,35.050048 -0.49088,38.435938 -6.57433,45.347108 -6.9609,7.90799 -7.88793,8.07939 -44.92567,8.30645 -17.875,0.10958 -34.378125,-0.18831 -36.673605,-0.66198 z m 47.890835,-21.75126 c 2.59447,-1.15438 6.92369,-4.16275 9.62047,-6.68528 14.25213,-13.33119 14.25213,-35.778887 0,-49.110076 -7.469,-6.986376 -12.55839,-8.934854 -23.3377,-8.934854 -10.77931,0 -15.8687,1.948478 -23.3377,8.934854 -10.499075,9.820645 -13.689495,25.337178 -7.824675,38.055036 4.298875,9.32208 11.733395,16.09527 20.986555,19.11968 5.93753,1.9407 17.99574,1.24457 23.89305,-1.37936 z m -20.97835,-10.57519 c -8.93436,-3.24022 -14.23888,-10.93877 -14.23888,-20.665128 0,-15.158495 13.53711,-25.215039 28.07772,-20.858569 9.09466,2.724829 14.92228,10.870751 14.92228,20.858569 0,7.276568 -2.3391,12.485338 -7.52724,16.761838 -5.99529,4.94183 -14.20773,6.45147 -21.23388,3.90329 z m 47.83804,-50.588204 c 3.60723,-3.607223 3.77099,-7.319926 0.46853,-10.622378 -4.84683,-4.846833 -13.54545,-1.773673 -13.54545,4.78551 0,8.030114 7.52493,11.388858 13.07692,5.836868 z"
       style="fill:#008000;fill-opacity:1" />
  </g>
</svg>
